<svg width="398" height="227" xmlns="http://www.w3.org/2000/svg" xmlns:xlink="http://www.w3.org/1999/xlink" xml:space="preserve" overflow="hidden"><defs><clipPath id="clip0"><rect x="436" y="274" width="398" height="227"/></clipPath></defs><g clip-path="url(#clip0)" transform="translate(-436 -274)"><text fill="#002162" font-family="Brush Script MT,Brush Script MT_MSFontService,sans-serif" font-style="italic" font-weight="400" font-size="912" transform="matrix(0.287544 -0.0997049 0.0998907 0.287009 441.316 490)">S</text><text fill="#002162" font-family="Avenir Next LT Pro,Avenir Next LT Pro_MSFontService,sans-serif" font-weight="700" font-size="165" transform="matrix(0.3044 0 0 0.303834 588.399 422)">now</text><text fill="#F0B510" font-family="Avenir Next LT Pro,Avenir Next LT Pro_MSFontService,sans-serif" font-weight="700" font-size="165" transform="matrix(0.3044 0 0 0.303834 694.778 422)">T</text><text fill="#002162" font-family="Avenir Next LT Pro,Avenir Next LT Pro_MSFontService,sans-serif" font-weight="700" font-size="165" transform="matrix(0.3044 0 0 0.303834 719.388 422)">ricks</text><path d="M470.791 324.039C462.232 324.039 455.295 330.365 455.295 338.167 455.295 345.97 462.232 352.295 470.791 352.295 479.35 352.295 486.286 345.97 486.286 338.167 486.286 338.167 486.286 338.167 486.286 338.167 486.289 330.368 479.356 324.042 470.803 324.039 470.8 324.039 470.794 324.039 470.791 324.039ZM472.489 344.165 470.134 344.165 470.134 333.901C469.934 334.023 469.724 334.144 469.502 334.26 469.281 334.372 469.053 334.476 468.819 334.567 468.567 334.658 468.299 334.743 468.02 334.822 467.74 334.898 467.433 334.974 467.099 335.05L467.099 333.333C467.324 333.275 467.531 333.218 467.716 333.16 467.898 333.102 468.084 333.045 468.263 332.987 468.445 332.92 468.624 332.853 468.807 332.783 468.986 332.713 469.168 332.643 469.348 332.58 469.518 332.498 469.694 332.413 469.87 332.331 470.043 332.249 470.22 332.163 470.39 332.072 470.581 331.981 470.769 331.881 470.952 331.775 471.137 331.665 471.325 331.565 471.514 331.477L472.489 331.477Z" stroke="#F0B510" stroke-width="1.04443" stroke-miterlimit="8" fill="#F0B510" fill-rule="evenodd" transform="matrix(1.00186 0 0 1 91.1946 16.8709)"/><path d="M460.764 328.293 481.121 328.293 481.121 347.13 460.764 347.13Z" stroke="#F0B510" stroke-width="1.39257" stroke-miterlimit="8" fill="#F0B510" transform="matrix(1.00186 0 0 1 91.1946 16.8709)"/><path d="M367.183 392.402C358.457 392.402 351.384 399.271 351.384 407.745 351.384 416.219 358.457 423.089 367.183 423.089 375.909 423.089 382.983 416.219 382.983 407.745 382.983 407.745 382.983 407.745 382.983 407.742 382.986 399.274 375.919 392.405 367.195 392.402 367.192 392.402 367.186 392.402 367.183 392.402ZM368.915 414.259 366.512 414.259 366.512 403.112C366.311 403.245 366.096 403.376 365.871 403.501 365.646 403.625 365.412 403.738 365.172 403.835 364.914 403.935 364.643 404.026 364.358 404.111 364.072 404.196 363.759 404.278 363.419 404.357L363.419 402.495C363.65 402.431 363.859 402.37 364.048 402.307 364.236 402.243 364.422 402.182 364.607 402.118 364.789 402.048 364.974 401.972 365.16 401.896 365.345 401.82 365.527 401.747 365.713 401.675 365.886 401.586 366.065 401.498 366.245 401.407 366.424 401.319 366.6 401.225 366.776 401.125 366.971 401.027 367.162 400.918 367.347 400.803 367.536 400.684 367.727 400.578 367.922 400.477L368.915 400.477Z" stroke="#002162" stroke-width="1.04443" stroke-miterlimit="8" fill="#002162" fill-rule="evenodd" transform="matrix(1.00186 0 0 1 91.1946 16.8709)"/><path d="M356.853 396.959 377.514 396.959 377.514 417.62 356.853 417.62Z" stroke="#002162" stroke-width="1.39257" stroke-miterlimit="8" fill="#002162" transform="matrix(1.00186 0 0 1 91.1946 16.8709)"/></g></svg>