<svg width="105" height="158" xmlns="http://www.w3.org/2000/svg" xmlns:xlink="http://www.w3.org/1999/xlink" xml:space="preserve" overflow="hidden"><defs><clipPath id="clip0"><rect x="585" y="249" width="105" height="158"/></clipPath></defs><g clip-path="url(#clip0)" transform="translate(-585 -249)"><text fill="#002162" font-family="Brush Script MT,Brush Script MT_MSFontService,sans-serif" font-style="italic" font-weight="400" font-size="912" transform="matrix(0.18274 -0.0633249 0.0634827 0.182286 593.295 398)">S</text><path d="M299.01 205.805C293.574 205.805 289.169 209.822 289.169 214.778 289.169 219.733 293.574 223.751 299.01 223.751 304.446 223.751 308.852 219.733 308.852 214.778 308.852 214.778 308.852 214.778 308.852 214.778 308.854 209.824 304.45 205.807 299.018 205.805 299.016 205.805 299.012 205.805 299.01 205.805ZM300.089 218.587 298.593 218.587 298.593 212.069C298.466 212.146 298.333 212.223 298.192 212.296 298.051 212.368 297.906 212.433 297.758 212.491 297.598 212.549 297.428 212.603 297.25 212.653 297.073 212.702 296.878 212.75 296.666 212.798L296.666 211.708C296.808 211.671 296.94 211.634 297.057 211.598 297.173 211.561 297.291 211.524 297.405 211.488 297.52 211.445 297.634 211.403 297.75 211.358 297.864 211.314 297.98 211.27 298.094 211.229 298.202 211.177 298.314 211.123 298.425 211.071 298.535 211.019 298.647 210.965 298.755 210.907 298.877 210.849 298.997 210.785 299.112 210.718 299.23 210.648 299.35 210.585 299.469 210.529L300.089 210.529Z" stroke="#F0B510" stroke-width="0.663341" stroke-miterlimit="8" fill="#F0B510" fill-rule="evenodd" transform="matrix(1.00249 0 0 1 370.785 98.0905)"/><path d="M292.642 208.506 305.571 208.506 305.571 220.471 292.642 220.471Z" stroke="#F0B510" stroke-width="0.884455" stroke-miterlimit="8" fill="#F0B510" transform="matrix(1.00249 0 0 1 370.785 98.0905)"/><path d="M233.207 249.223C227.665 249.223 223.172 253.587 223.172 258.968 223.172 264.35 227.665 268.714 233.207 268.714 238.749 268.714 243.241 264.35 243.241 258.968 243.241 258.968 243.241 258.968 243.241 258.967 243.243 253.588 238.755 249.225 233.214 249.223 233.213 249.223 233.209 249.223 233.207 249.223ZM234.307 263.106 232.78 263.106 232.78 256.026C232.653 256.111 232.516 256.194 232.373 256.273 232.23 256.352 232.082 256.423 231.929 256.485 231.765 256.549 231.593 256.607 231.412 256.661 231.231 256.715 231.032 256.767 230.816 256.817L230.816 255.634C230.962 255.593 231.096 255.555 231.215 255.514 231.335 255.474 231.453 255.435 231.57 255.395 231.686 255.35 231.804 255.302 231.922 255.254 232.039 255.206 232.155 255.159 232.273 255.113 232.383 255.057 232.497 255.001 232.61 254.943 232.724 254.887 232.836 254.827 232.948 254.764 233.072 254.702 233.193 254.632 233.311 254.559 233.431 254.484 233.552 254.416 233.676 254.353L234.307 254.353Z" stroke="#002162" stroke-width="0.663341" stroke-miterlimit="8" fill="#002162" fill-rule="evenodd" transform="matrix(1.00249 0 0 1 370.785 98.0905)"/><path d="M226.646 252.118 239.768 252.118 239.768 265.24 226.646 265.24Z" stroke="#002162" stroke-width="0.884455" stroke-miterlimit="8" fill="#002162" transform="matrix(1.00249 0 0 1 370.785 98.0905)"/></g></svg>